<?xml version="1.0" encoding="utf-8"?><svg xmlns="http://www.w3.org/2000/svg" xmlns:xlink="http://www.w3.org/1999/xlink"><symbol viewBox="0 0 32 32" id="contacts-address"><path d="M15.999 17.96a2.91 2.91 0 0 1-2.914-2.907 2.91 2.91 0 0 1 2.914-2.906 2.91 2.91 0 0 1 2.914 2.906A2.91 2.91 0 0 1 16 17.96z"/><path fill-rule="evenodd" clip-rule="evenodd" d="M29 16c0 7.18-5.82 13-13 13S3 23.18 3 16 8.82 3 16 3s13 5.82 13 13zM15.786 9.004c-2.988.104-5.47 2.43-5.757 5.397a6.004 6.004 0 0 0 .08 1.72l.002.015.008.044c.007.03.016.074.03.128.092.412.231.812.404 1.187.601 1.421 1.992 3.799 5.113 6.385.191.16.472.16.666 0 3.12-2.583 4.512-4.96 5.116-6.388a5.735 5.735 0 0 0 .444-1.375c.071-.369.108-.747.108-1.134 0-3.377-2.803-6.1-6.214-5.98z"/><path fill-rule="evenodd" clip-rule="evenodd" d="M32 16c0 8.837-7.163 16-16 16S0 24.837 0 16 7.163 0 16 0s16 7.163 16 16zm-1 0c0 8.284-6.716 15-15 15-8.284 0-15-6.716-15-15C1 7.716 7.716 1 16 1c8.284 0 15 6.716 15 15z"/></symbol><symbol viewBox="0 0 32 32" id="contacts-clock"><path d="M16 16.387h2.605a.387.387 0 1 0 0-.775h-2.218v-3.361a.388.388 0 1 0-.775 0V16c0 .214.174.387.388.387z"/><path fill-rule="evenodd" clip-rule="evenodd" d="M9.322 16A6.686 6.686 0 0 0 16 22.678 6.686 6.686 0 0 0 22.678 16 6.686 6.686 0 0 0 16 9.322 6.686 6.686 0 0 0 9.322 16zm11.77 0c0 .214.174.387.388.387h.41a5.878 5.878 0 0 1-1.447 3.495l-.304-.305a.387.387 0 1 0-.548.548l.305.305a5.878 5.878 0 0 1-3.509 1.46v-.457a.388.388 0 1 0-.775 0v.457a5.88 5.88 0 0 1-3.519-1.469l.33-.33a.387.387 0 1 0-.549-.547l-.327.327a5.878 5.878 0 0 1-1.437-3.483h.457a.388.388 0 1 0 0-.776h-.457a5.88 5.88 0 0 1 1.46-3.508l.304.304a.386.386 0 0 0 .548 0 .387.387 0 0 0 0-.548l-.304-.304a5.88 5.88 0 0 1 3.494-1.446v.41a.388.388 0 0 0 .775 0v-.41a5.877 5.877 0 0 1 3.484 1.437l-.28.28a.387.387 0 1 0 .548.548l.282-.282a5.879 5.879 0 0 1 1.469 3.52h-.41a.388.388 0 0 0-.387.387z"/><path fill-rule="evenodd" clip-rule="evenodd" d="M29 16c0 7.18-5.82 13-13 13S3 23.18 3 16 8.82 3 16 3s13 5.82 13 13zM16 8c-4.411 0-8 3.589-8 8s3.589 8 8 8 8-3.589 8-8-3.589-8-8-8z"/><path fill-rule="evenodd" clip-rule="evenodd" d="M32 16c0 8.837-7.163 16-16 16S0 24.837 0 16 7.163 0 16 0s16 7.163 16 16zm-1 0c0 8.284-6.716 15-15 15-8.284 0-15-6.716-15-15C1 7.716 7.716 1 16 1c8.284 0 15 6.716 15 15z"/></symbol><symbol viewBox="0 0 32 32" id="contacts-email"><path fill-rule="evenodd" clip-rule="evenodd" d="M29 16c0 7.18-5.82 13-13 13S3 23.18 3 16 8.82 3 16 3s13 5.82 13 13zm-6.429-6H9.43c-.458 0-.81.148-1.058.443-.247.296-.37.665-.37 1.108 0 .358.163.746.49 1.164a4.34 4.34 0 0 0 1.045.984c.203.136.813.541 1.83 1.214a642.317 642.317 0 0 1 2.34 1.556l.133.09.246.17c.194.133.354.241.482.324l.079.05a8.475 8.475 0 0 0 .386.227 3.109 3.109 0 0 0 .513.23c.161.05.31.077.447.077h.017a1.648 1.648 0 0 0 .446-.077 2.78 2.78 0 0 0 .514-.23 9.575 9.575 0 0 0 .681-.42l.266-.181.246-.17.075-.05.058-.04 4.179-2.77c.434-.29.797-.64 1.089-1.048.291-.41.437-.838.437-1.287a1.28 1.28 0 0 0-.424-.964 1.415 1.415 0 0 0-1.005-.4zm-13.67 4.61A4.675 4.675 0 0 1 8 13.87v6.583l3.995-3.814a301.072 301.072 0 0 0-3.093-2.028zM22.572 22c.36 0 .671-.113.936-.337l-4.533-4.328-.112.077-.202.139c-.339.238-.614.425-.826.558a5.18 5.18 0 0 1-.843.41 2.684 2.684 0 0 1-.982.208h-.018c-.304 0-.631-.07-.982-.209a5.162 5.162 0 0 1-.844-.41l-.1-.062-.089-.059-.07-.047a19.35 19.35 0 0 1-.567-.39l-.313-.216-4.534 4.329c.265.224.577.337.937.337h13.14zm-2.565-5.36a295.76 295.76 0 0 1 3.1-2.03c.34-.22.637-.468.893-.74v6.583l-3.993-3.812z"/><path fill-rule="evenodd" clip-rule="evenodd" d="M32 16c0 8.837-7.163 16-16 16S0 24.837 0 16 7.163 0 16 0s16 7.163 16 16zm-1 0c0 8.284-6.716 15-15 15-8.284 0-15-6.716-15-15C1 7.716 7.716 1 16 1c8.284 0 15 6.716 15 15z"/></symbol><symbol viewBox="0 0 92 92" id="contacts-reserv"><path fill-rule="evenodd" clip-rule="evenodd" d="M46 89.125c23.817 0 43.125-19.308 43.125-43.125S69.817 2.875 46 2.875 2.875 22.183 2.875 46 22.183 89.125 46 89.125zM46 92c25.405 0 46-20.595 46-46S71.405 0 46 0 0 20.595 0 46s20.595 46 46 46z"/><path d="M29.494 46.806c2.322-6.515 8.346-11.019 15.338-11.475a1.24 1.24 0 0 0 1.166-1.313c-.049-.68-.668-1.19-1.33-1.149-7.996.52-14.879 5.669-17.533 13.118a1.233 1.233 0 0 0 .765 1.574 1.253 1.253 0 0 0 1.595-.755z"/><path fill-rule="evenodd" clip-rule="evenodd" d="M46 83.375c20.643 0 37.375-16.733 37.375-37.375S66.643 8.625 46 8.625 8.625 25.358 8.625 46 25.357 83.375 46 83.375zm3.71-56.148c-.048.337-.145.66-.282.963 11.322 1.537 20.27 10.54 21.418 21.943H21.152c1.149-11.408 10.092-20.406 21.42-21.943a3.513 3.513 0 0 1-.299-1.091 3.363 3.363 0 0 1-.023-.399c0-2.04 1.682-3.7 3.75-3.7s3.75 1.66 3.75 3.7c0 .179-.014.355-.04.527zM74.75 52.6c.432 0 .834.222 1.064.585.229.365.247.816.055 1.2C74.11 57.85 70.582 60 66.66 60H25.34c-3.926 0-7.453-2.151-9.207-5.617a1.184 1.184 0 0 1-.131-.5v-.107a1.215 1.215 0 0 1 .186-.591 1.253 1.253 0 0 1 1.062-.585h57.5z"/></symbol><symbol viewBox="0 0 32 32" id="contacts-tel"><path fill-rule="evenodd" clip-rule="evenodd" d="M29 16c0 7.18-5.82 13-13 13S3 23.18 3 16 8.82 3 16 3s13 5.82 13 13zm-8.226 5.894c-.398.451-3.267 3.278-7.589-3.304-4.555-6.94-1.824-8.84-.639-9.31l.057-.021.094-.034.04-.013c.167-.054.273-.071.273-.071l-.001.008c.785-.135 1.521.17 1.662.843l.248 1.53c.168.803-.482 1.768-1.452 2.156l-.079.031c.514 1.744 1.55 3.752 3.582 5.579l.15-.127c.79-.674 1.963-.808 2.62-.3l1.155.983c.641.496.617 1.38-.12 2.05z"/><path fill-rule="evenodd" clip-rule="evenodd" d="M32 16c0 8.837-7.163 16-16 16S0 24.837 0 16 7.163 0 16 0s16 7.163 16 16zm-1 0c0 8.284-6.716 15-15 15-8.284 0-15-6.716-15-15C1 7.716 7.716 1 16 1c8.284 0 15 6.716 15 15z"/></symbol><symbol viewBox="0 0 139.4 44.7" id="dorohovdesign"><path d="M52.2 19.5V8.1H57c3.6 0 6.1 2.1 6.1 5.7 0 3.5-2.6 5.7-6.1 5.7h-4.8zm7.9-5.7c0-1.8-1.1-3.1-3.1-3.1h-1.9v6.2H57c2 0 3.1-1.4 3.1-3.1m4.1 0c0-3.4 2.6-5.9 6.1-5.9 3.5 0 6.1 2.4 6.1 5.9 0 3.5-2.6 5.9-6.1 5.9-3.5 0-6.1-2.4-6.1-5.9m9.2 0c0-1.9-1.2-3.3-3.1-3.3-1.9 0-3.1 1.4-3.1 3.3 0 1.8 1.2 3.3 3.1 3.3 1.9 0 3.1-1.4 3.1-3.3m11 5.7l-1.9-3.8H81v3.8h-2.9V8.1h5.7c2.5 0 3.9 1.7 3.9 3.8 0 2-1.2 3-2.3 3.4l2.3 4.2h-3.3zm.3-7.6c0-.8-.6-1.2-1.4-1.2H81v2.4h2.3c.8 0 1.4-.4 1.4-1.2m4.2 1.9c0-3.4 2.6-5.9 6.1-5.9 3.5 0 6.1 2.4 6.1 5.9 0 3.5-2.6 5.9-6.1 5.9-3.5 0-6.1-2.4-6.1-5.9m9.1 0c0-1.9-1.2-3.3-3.1-3.3-1.9 0-3.1 1.4-3.1 3.3 0 1.8 1.2 3.3 3.1 3.3 1.9 0 3.1-1.4 3.1-3.3m12.4 5.7v-4.6h-4.7v4.6h-3V8.1h3v4.3h4.7V8.1h2.9v11.4zm4.6-5.7c0-3.4 2.6-5.9 6.1-5.9 3.5 0 6.1 2.4 6.1 5.9 0 3.5-2.6 5.9-6.1 5.9-3.5 0-6.1-2.4-6.1-5.9m9.2 0c0-1.9-1.2-3.3-3.1-3.3-1.9 0-3.1 1.4-3.1 3.3 0 1.8 1.2 3.3 3.1 3.3 1.9 0 3.1-1.4 3.1-3.3m7.3 5.7l-4.3-11.4h3.3l2.8 8.2 2.8-8.2h3.3l-4.2 11.4zm-79.3 17V25.1H57c3.6 0 6.1 2.1 6.1 5.7 0 3.5-2.6 5.7-6.1 5.7h-4.8zm7.9-5.7c0-1.8-1.1-3.1-3.1-3.1h-1.9v6.2H57c2 0 3.1-1.4 3.1-3.1m4.7 5.7V25.1h8.3v2.6h-5.3v1.8H73V32h-5.2v1.9h5.3v2.6zm9.6-1.6l1.5-2.2c.8.8 2.1 1.5 3.6 1.5 1 0 1.6-.4 1.6-.9 0-1.5-6.4-.3-6.4-4.7 0-1.9 1.6-3.6 4.5-3.6 1.8 0 3.4.5 4.6 1.6l-1.6 2.1c-1-.8-2.2-1.2-3.3-1.2-.8 0-1.2.3-1.2.8 0 1.4 6.4.4 6.4 4.6 0 2.3-1.7 3.8-4.7 3.8-2.2 0-3.8-.7-5-1.8m11.5-9.8h2.9v11.3h-2.9zm4.7 5.7c0-3.6 2.8-5.9 6.1-5.9 2.5 0 4.1 1.3 4.8 2.8L99.1 29c-.4-.7-1.3-1.4-2.4-1.4-1.9 0-3.2 1.4-3.2 3.3s1.3 3.3 3.2 3.3c.8 0 1.7-.3 2.1-.7v-.9h-2.6V30h5.5v4.5c-1.2 1.3-2.9 2.2-5 2.2-3.4 0-6.1-2.3-6.1-5.9m20.9 5.7l-4.8-6.6v6.6h-2.9V25.1h3l4.6 6.3v-6.3h2.9v11.4zM17.7 0H0v44.7h17.8c15 0 24.6-8.8 24.6-22.4C42.4 8.7 32.7 0 17.7 0m-.4 35.7h-8V9.5h8c9.3 0 15.7 3.7 15.7 12.7.1 7.5-5.8 13.5-15.7 13.5"/><path d="M19.1 17H17v10.6h2c4 0 6.4-2.4 6.4-5.4 0-3.7-2.6-5.2-6.3-5.2"/></symbol><symbol viewBox="0 0 96.124 96.123" id="fb"><path d="M72.089.02L59.624 0C45.62 0 36.57 9.285 36.57 23.656v10.907H24.037a1.96 1.96 0 0 0-1.96 1.961v15.803a1.96 1.96 0 0 0 1.96 1.96H36.57v39.876a1.96 1.96 0 0 0 1.96 1.96h16.352a1.96 1.96 0 0 0 1.96-1.96V54.287h14.654a1.96 1.96 0 0 0 1.96-1.96l.006-15.803a1.963 1.963 0 0 0-1.961-1.961H56.842v-9.246c0-4.444 1.059-6.7 6.848-6.7l8.397-.003a1.96 1.96 0 0 0 1.959-1.96V1.98A1.96 1.96 0 0 0 72.089.02z"/></symbol><symbol viewBox="0 0 17 17" id="form-email"><path d="M8.5 0C3.813 0 0 3.813 0 8.5 0 13.187 3.813 17 8.5 17c2.27 0 4.405-.884 6.01-2.49a.354.354 0 1 0-.5-.5 7.74 7.74 0 0 1-5.51 2.282C4.204 16.292.708 12.796.708 8.5.708 4.204 4.204.708 8.5.708c4.296 0 7.792 3.496 7.792 7.792v.708a2.127 2.127 0 0 1-2.125 2.125 2.127 2.127 0 0 1-2.125-2.125V6.021a.354.354 0 1 0-.709 0v.376A3.528 3.528 0 0 0 8.5 4.958 3.546 3.546 0 0 0 4.958 8.5 3.546 3.546 0 0 0 8.5 12.042a3.53 3.53 0 0 0 3.046-1.765 2.835 2.835 0 0 0 2.62 1.765A2.837 2.837 0 0 0 17 9.208V8.5C17 3.813 13.187 0 8.5 0zm0 11.333A2.837 2.837 0 0 1 5.667 8.5 2.837 2.837 0 0 1 8.5 5.667 2.837 2.837 0 0 1 11.333 8.5 2.836 2.836 0 0 1 8.5 11.333z"/></symbol><symbol viewBox="0 0 17 17" id="form-name"><path d="M14.671 14.234l2.004-1.002-5.451-2.008 2.008 5.451 1.002-2.003 2.101 2.1a.308.308 0 1 0 .437-.436l-2.1-2.102zm-2.404-1.967l2.854 1.052-1.202.6-.6 1.202-1.052-2.854z"/><path d="M8.5 0C3.813 0 0 3.813 0 8.5a8.479 8.479 0 0 0 2.759 6.262l-.008.007.276.232.055.043c.146.12.298.236.452.348a8.674 8.674 0 0 0 1.354.8l.044.02a8.424 8.424 0 0 0 2.792.75l.083.007c.229.019.46.031.693.031a.309.309 0 1 0 0-.618c-.196 0-.391-.01-.586-.024l-.1-.008a8.004 8.004 0 0 1-.585-.072l-.026-.005a7.847 7.847 0 0 1-1.202-.3l-.036-.012a7.869 7.869 0 0 1-.576-.22l-.004-.002a8.109 8.109 0 0 1-.527-.253l-.068-.035a7.956 7.956 0 0 1-1.013-.645l-.04-.032.029-.017 2.444-1.333c.42-.23.681-.67.681-1.148v-1.113l-.07-.086a5.16 5.16 0 0 1-.928-1.921l-.029-.123-.105-.068a.512.512 0 0 1-.238-.43V7.439c0-.144.061-.278.172-.378l.102-.092V5.247l-.002-.04c-.001-.008-.092-.751.431-1.348.447-.51 1.213-.768 2.276-.768 1.059 0 1.822.256 2.27.762.524.59.438 1.348.437 1.354l-.003 1.762.102.092c.112.1.173.235.173.379v1.095c0 .22-.15.42-.365.487a.309.309 0 0 0 .182.59c.48-.147.8-.58.8-1.077V7.44c0-.268-.097-.528-.273-.733V5.265c.016-.161.073-1.066-.582-1.813-.57-.65-1.492-.98-2.741-.98s-2.171.33-2.74.98c-.656.747-.599 1.652-.583 1.812v1.443a1.126 1.126 0 0 0-.274.732v1.096c0 .34.153.658.414.872.25.98.766 1.723.956 1.975v.894a.69.69 0 0 1-.359.605L3.47 14.214a2.23 2.23 0 0 0-.232.148A7.863 7.863 0 0 1 .618 8.5C.618 4.154 4.154.618 8.5.618s7.882 3.536 7.882 7.882a.309.309 0 1 0 .618 0C17 3.813 13.187 0 8.5 0z"/></symbol><symbol viewBox="0 0 17 17" id="form-tel"><path d="M16.554 13.115l-.66-.44A8.46 8.46 0 0 0 8.534.035a.283.283 0 1 0 0 .567 7.892 7.892 0 0 1 6.886 11.757l-2.308-1.539a1.005 1.005 0 0 0-1.345.219l-1.001 1.288a.429.429 0 0 1-.55.116l-.19-.105c-.632-.345-1.418-.774-3.003-2.359C5.44 8.394 5.01 7.607 4.664 6.976l-.104-.19a.429.429 0 0 1 .113-.552l1.288-1.002c.412-.323.507-.908.219-1.345L3.885.447A1 1 0 0 0 2.538.142L1.1 1.007A2.03 2.03 0 0 0 .174 2.21c-.518 1.888-.128 5.146 4.671 9.946 2.09 2.091 3.888 3.343 5.408 4.052A7.879 7.879 0 0 1 .638 8.5a.283.283 0 1 0-.566 0 8.473 8.473 0 0 0 8.462 8.465 8.39 8.39 0 0 0 2.578-.406c.75.28 1.545.43 2.347.44.45.002.897-.057 1.332-.174a2.027 2.027 0 0 0 1.2-.926l.866-1.438a1 1 0 0 0-.303-1.347zm-.184 1.056l-.863 1.439a1.462 1.462 0 0 1-.866.67c-.824.227-1.94.255-3.374-.262a.281.281 0 0 0-.073-.028c-1.586-.59-3.556-1.844-5.949-4.237C.64 7.147.242 4.102.72 2.358c.104-.364.344-.674.671-.865L2.83.63a.433.433 0 0 1 .584.131l1.247 1.872 1.046 1.57a.436.436 0 0 1-.095.583L4.324 5.788a.992.992 0 0 0-.262 1.273l.102.185c.362.664.812 1.49 2.456 3.134 1.643 1.643 2.469 2.093 3.132 2.455l.187.103a.99.99 0 0 0 1.272-.263l1.002-1.288a.436.436 0 0 1 .584-.095l3.44 2.295a.433.433 0 0 1 .133.584z"/></symbol><symbol viewBox="0 0 16 14" id="icon-down"><path fill-rule="evenodd" clip-rule="evenodd" d="M7.93 11l5.196-9H2.734l5.196 9zm-.866 2.5a1 1 0 0 0 1.732 0l6.928-12a1 1 0 0 0-.866-1.5H1a1 1 0 0 0-.866 1.5l6.929 12z"/></symbol><symbol viewBox="0 0 14 16" id="icon-next"><path fill-rule="evenodd" clip-rule="evenodd" d="M11 7.93L2 2.734v10.392l9-5.196zm2.5.866a1 1 0 0 0 0-1.732L1.5.135a1 1 0 0 0-1.5.866v13.857a1 1 0 0 0 1.5.866l12-6.928z"/></symbol><symbol viewBox="0 0 14 16" id="icon-prev"><path fill-rule="evenodd" clip-rule="evenodd" d="M3 8l9 5.196V2.804L3 8zM.5 7.134a1 1 0 0 0 0 1.732l12 6.928a1 1 0 0 0 1.5-.866V1.072a1 1 0 0 0-1.5-.866L.5 7.134z"/></symbol><symbol viewBox="0 0 16 17" id="icon-search"><path d="M15.757 15.484l-3.944-4.208a6.949 6.949 0 0 0 1.57-4.412C13.382 3.079 10.38 0 6.69 0 3.001 0 0 3.08 0 6.864s3.002 6.863 6.691 6.863a6.505 6.505 0 0 0 3.834-1.242l3.974 4.24a.856.856 0 0 0 1.234.025.913.913 0 0 0 .024-1.266zM6.69 1.791c2.727 0 4.946 2.275 4.946 5.073 0 2.797-2.219 5.073-4.946 5.073S1.746 9.66 1.746 6.864c0-2.798 2.218-5.073 4.945-5.073z"/></symbol><symbol viewBox="0 0 92 92" id="inst"><path d="M46 89.625c24.093 0 43.625-19.532 43.625-43.625S70.093 2.375 46 2.375 2.375 21.907 2.375 46 21.907 89.625 46 89.625zM91.5 46c0 25.129-20.372 45.5-45.5 45.5S.5 71.129.5 46 20.872.5 46 .5 91.5 20.871 91.5 46zm-8.625 0c0 20.365-16.509 36.875-36.875 36.875S9.125 66.365 9.125 46C9.125 25.634 25.634 9.125 46 9.125S82.875 25.635 82.875 46zM63.5 33.364c0-2.877-2.2-4.864-4.863-4.864H33.363c-2.662 0-4.863 1.987-4.863 4.864v25.272c0 2.877 2.2 4.864 4.863 4.864h25.274c2.662 0 4.863-1.987 4.863-4.864V33.364zm-10.762.944c0-.566.464-1.03 1.03-1.03h3.843c.566 0 1.03.464 1.03 1.03v3.664c0 .566-.465 1.03-1.03 1.03h-3.843c-.566 0-1.03-.464-1.03-1.03v-3.664zm-19.46 9.57h1.969a10.457 10.457 0 0 0-.282 2.417c0 5.946 4.97 10.74 11.068 10.74 6.097 0 11.069-4.794 11.069-10.74 0-.83-.1-1.64-.284-2.416h1.84V57.74a.855.855 0 0 1-.851.852H34.13a.857.857 0 0 1-.854-.852V43.88zm6.425 2.048c0-3.363 2.82-6.116 6.328-6.116 3.513 0 6.33 2.753 6.33 6.116 0 3.363-2.82 6.116-6.33 6.116-3.508 0-6.328-2.752-6.328-6.116z"/></symbol><symbol viewBox="0 0 150 81" fill="none" id="logotip"><path d="M20.837 23.193h-7.386v37.894H6.054V23.193H0V17.1h6.055V9.6C6.055 3.201 9.866 0 17.48 0c.687 0 1.8.06 3.358.164v6.595c-1.235-.113-2.227-.164-3.01-.164-1.575 0-2.689.397-3.367 1.19-.67.812-1.01 2.098-1.01 3.894v5.42h7.387v6.094z" fill="#E31E24"/><path d="M117.121 51.806c1.967 2.322 7.143 6.914 7.987 12.473.174 1.13-.026 2.21-.148 3.168a12.533 12.533 0 0 1-.295 1.623c-.131.483-.244.88-.348 1.182-.148.44-.348.855-.54 1.243-.2.397-.4.751-.609 1.027a3.315 3.315 0 0 1-1.044.933c-.383.215-.818.31-1.314.285-.252-.01-.478-.13-.696-.337a8.885 8.885 0 0 0-.731-.613 5.589 5.589 0 0 0-.861-.518 1.825 1.825 0 0 1-.722-.647 1.648 1.648 0 0 1-.244-1.122c.053-.423 0-.846-.104-1.27a2.393 2.393 0 0 0-.574-1.035c-.313-.345-.435-.69-.453-1.019-.087-1.631-1.47-5.602-3.088-7.958-2.462 4.54-.983-4.86-2.715-1.83-1.722 3.03-3.332 5.706-4.393 7.518-.688 1.174-1.114 2.14-1.279 2.883-.174.751-.27 1.39-.287 1.916-.026.467-.044 1.01-.052 1.623-.009.605-.148 1.243-.401 1.916a3.5 3.5 0 0 1-.478.812c-.244.328-.409.63-.514.95a1.62 1.62 0 0 0-.052.793c.044.268.018.518-.061.734a3.3 3.3 0 0 0-.148.786c-.026.284-.06.526-.156.682-.157.224-.4.362-.687.422-.296.06-.54.087-.757.096-.757.008-1.418-.579-1.975-1.761-.566-1.192-.992-2.141-1.314-2.849a65.62 65.62 0 0 1-1.436-3.418c-.374-1.001-.487-1.908-.287-2.719.13-.527.374-1.252.731-2.193a17.09 17.09 0 0 0 .827-3.15c.408-2.443 1.165-5.188 1.818-7.751.409-1.589.896-5.697 1.775-9.625a169.113 169.113 0 0 1-1.74-1.76c-.41-.406-.983-.941-1.749-1.597a286.394 286.394 0 0 1-2.384 3.616 323.555 323.555 0 0 0-2.706 4.221c-.852 1.373-1.73 2.806-2.67 4.307-.923 1.485-1.854 2.97-2.75 4.463-.53.924-1.079 1.847-1.618 2.78h-6.177c.139-.25.278-.51.409-.769.487-.95 1-1.933 1.53-2.96.532-1.01 1.045-1.994 1.576-2.944.409-.75.87-1.536 1.383-2.356a49.142 49.142 0 0 0 1.444-2.348c.435-.751.94-1.468 1.514-2.158a15.03 15.03 0 0 0 1.531-2.158c.41-.734.87-1.39 1.375-1.994.505-.604 1-1.26 1.462-1.96.339-.5.643-1.027.948-1.588.296-.56.618-1.087.94-1.596a141.909 141.909 0 0 0-4.098-3.203 77.227 77.227 0 0 0-4.142-2.848c-1.357-.88-2.558-1.684-3.61-2.452-1.053-.768-2.323-1.562-3.776-2.365-.2-.112-.461-.19-.8-.233-.331-.034-.61-.104-.81-.216a2.213 2.213 0 0 1-.783-.707c-.174-.294-.435-.536-.774-.734-.305-.173-.679-.225-1.088-.121-.417.104-.704.164-.843.19-.157.034-.427-.052-.792-.26-.357-.189-.592-.43-.679-.716-.182-.543.218-.966 1.166-1.234.975-.276 1.758-.544 2.367-.811.757-.276 1.409-.5 1.974-.656a4.278 4.278 0 0 1 1.619-.164c.295-.009.713 0 1.227.034.513.043.957.164 1.34.38a.945.945 0 0 1 .46.535c.087.26.253.45.505.622.174.138.566.328 1.166.604.609.268 1.01.475 1.244.613a49.782 49.782 0 0 1 2.828 2.045c.878.682 1.948 1.425 3.219 2.245a85.596 85.596 0 0 1 3.401 2.296c1.08.768 2.132 1.502 3.15 2.244 1.662-2.382 3.254-4.41 4.75-6.103a165.204 165.204 0 0 1 4.237-4.652c.27-.32.653-.622 1.166-.906a4.108 4.108 0 0 1 1.488-.587c.504-.095.974 0 1.409.276.435.267.766.785 1.009 1.562.279.932.505 1.761.627 2.469.139.699.139 1.38-.026 2.02-.505 1.976-1.079 4.195-1.714 6.672-.644 2.477-1.331 5.11-2.071 7.898a132.815 132.815 0 0 1 2.506 2.34c.504.491 1.27 1.346 2.288 2.554.322.095.6.07.861-.06a1.27 1.27 0 0 0 .566-.587 9.84 9.84 0 0 0 .478-1.157c.14-.371.296-.742.444-1.096.392-.785.801-1.554 1.262-2.33.443-.769.861-1.554 1.235-2.366.087-.215.113-.388.078-.518-.026-.12 0-.293.087-.526.314-.665.679-1.45 1.097-2.348.4-.915.748-1.7 1.052-2.374.183-.466.401-.94.627-1.398.235-.457.461-.94.67-1.441.243-.579.522-1.209.817-1.89.288-.691.566-1.33.818-1.917.374-.855.775-1.882 1.192-3.064a83.036 83.036 0 0 1 1.14-3.108c.191-.5.435-1.01.696-1.528.278-.509.513-1.027.739-1.527.166-.415.305-.864.427-1.347.104-.483.261-.94.409-1.355.026-.112.113-.155.226-.121.13.043.244.155.365.31.113.173.322.562.601 1.183.295.622.513 1.105.643 1.424.209.492.435 1.226.662 2.193.243.975.304 1.58.191 1.864-.217.613-.435 1.243-.661 1.9-.235.655-.461 1.329-.714 1.985a60.893 60.893 0 0 1-2.166 5.23c-.8 1.701-1.592 3.47-2.366 5.309a129.777 129.777 0 0 1-2.393 5.404 285.24 285.24 0 0 1-2.584 5.412c-.383.785-.766 1.58-1.157 2.382-.392.811-.783 1.597-1.175 2.382zm-13.424-17.453c-.2 0-.479.198-.844.63a82.15 82.15 0 0 0-1.34 1.554c.139.078.348.19.601.345.278.155.495.302.669.475.157.12.305.276.418.414.113.155.218.268.287.354.305-1.114.461-2.02.479-2.728.026-.699-.07-1.053-.27-1.044zm6.603 20.535a102.663 102.663 0 0 0-2.044-2.598 47.476 47.476 0 0 0-2.123-2.452 341.11 341.11 0 0 0-2.558 10.85c-.748 3.462-1.401 3.73-1.696 6.345 1.026.682 3.358-3.065 4.306-5.17.2-.45.644-1.149.888-1.572.278-.492.583-.94.939-1.346a5.74 5.74 0 0 0 .914-1.304c.122-.241.2-.57.226-.966.026-.415.096-.734.2-.984.113-.225.27-.372.496-.432a.573.573 0 0 0 .452-.371z" fill="#0CF"/><path d="M43.648 35.865h6.717v10.203h5.385c.357-3.228 1.584-5.826 3.698-7.794 2.123-1.968 4.95-2.944 8.491-2.944 3.576 0 6.508 1.148 8.788 3.444 2.28 2.296 3.428 5.61 3.428 9.935 0 2.547-.427 4.765-1.288 6.655-.844 1.908-2.158 3.436-3.907 4.601-1.757 1.174-4.054 1.752-6.881 1.752-4.063 0-7.1-1.096-9.092-3.306-1.992-2.2-3.071-4.549-3.237-7.043h-5.385v9.72h-6.717V35.864zm24.205 4.661c-1.88 0-3.237.605-4.098 1.787-.862 1.191-1.288 3.09-1.288 5.697 0 3.34.452 5.593 1.375 6.759.922 1.165 2.331 1.752 4.21 1.752 1.732 0 3.028-.656 3.89-1.968.87-1.312 1.305-3.28 1.305-5.904 0-3.203-.47-5.36-1.41-6.465-.94-1.105-2.27-1.658-3.984-1.658z" fill="#F69F08"/><path d="M126.875 35.865h6.708v9.227h9.701v-9.227H150v25.222h-6.716v-10.6h-9.701v10.6h-6.708V35.865z" fill="#3C3"/><path d="M10.553 68.08c2.192.344 3.22 1.872 3.071 4.583-.148 1.778-.948 2.891-2.401 3.332-1.296.302-2.375 0-3.22-.89v4.964H6.656v-11.92h1.349v1.113c.748-.838 1.6-1.235 2.549-1.183zm-.452 1.035c-.696 0-1.392.466-2.097 1.407v3.4c.652.89 1.453 1.235 2.401 1.037 1.497-.147 2.193-1.278 2.097-3.401-.105-1.235-.627-2.003-1.575-2.296l-.826-.147zm10.883-1.191c2.445.155 3.646 1.683 3.594 4.592h-5.69c.095 1.087.617 1.856 1.566 2.296.748.293 1.88.095 3.375-.587l.444 1.036c-.748.44-1.644.734-2.688.889h-.905c-2.001-.449-3.019-1.882-3.071-4.299.104-1.778.948-3.03 2.549-3.772l.826-.155zm.07 1.26c-1.096 0-1.818.673-2.166 2.003v.224h4.263v-.449c-.044-.889-.618-1.459-1.723-1.7l-.374-.078zm11.859-1.183a4.675 4.675 0 0 1 2.096.665l-.452.967a2.36 2.36 0 0 0-1.723-.518c-1.348-.052-2.218.768-2.619 2.443-.147 1.58.349 2.667 1.497 3.254 1 .345 1.949.198 2.845-.44l.6 1.035c-.948.64-2.096.864-3.445.665-1.6-.595-2.47-1.726-2.628-3.41l-.07-.664c.201-1.977 1.071-3.254 2.62-3.85.2-.095.626-.147 1.279-.147zm6.455.147h7.57v1.191h-3.15v6.656h-1.27v-6.656h-3.15v-1.19zm14.782-.147c1.548-.051 2.688.82 3.445 2.59.2.639.244 1.364.148 2.15-.252 1.778-1.07 2.865-2.47 3.254-.305.155-.827.198-1.576.155-1.853-.207-2.897-1.459-3.15-3.78v-.519c.105-1.674.775-2.84 2.028-3.478.348-.199.87-.32 1.575-.372zm-.078 1.183c-1.201.052-1.95.794-2.245 2.227-.252 1.675.217 2.814 1.418 3.4.252.148.705.2 1.349.148 1.452-.346 2.096-1.476 1.948-3.401-.252-1.381-.948-2.175-2.096-2.374h-.374zm11.632-1.105c2.192.346 3.219 1.873 3.07 4.584-.147 1.778-.948 2.891-2.4 3.332-1.297.302-2.376 0-3.22-.89v4.964h-1.348v-11.92h1.349v1.113c.748-.838 1.6-1.235 2.549-1.183zm-.453 1.036c-.704 0-1.4.466-2.097 1.407v3.4c.644.89 1.445 1.235 2.393 1.037 1.505-.147 2.201-1.278 2.097-3.401-.096-1.235-.618-2.003-1.566-2.296l-.827-.147zm11.102-1.114c1.053-.051 1.8.277 2.253.959.296.103.4 1.83.296 5.187v.44c-.096.25.174.32.826.225h.148v1.183h-1.87c-.348-.147-.53-.389-.53-.734-.897.587-1.924.889-3.072.889h-.218c-1.052-.104-1.574-.846-1.574-2.227 0-1.632 1.618-2.59 4.863-2.883.052-.449 0-.941-.148-1.485-.4-.69-1.627-.57-3.671.371l-.522-.966c.948-.535 2.018-.855 3.219-.959zm.905 4.29l-2.106.372c-.696.198-1.174.595-1.418 1.182v.156c-.052.44.244.785.896 1.035.948.052 1.897-.276 2.845-.966v-1.778h-.217zm6.681-4.143h1.349v3.108h3.898v-3.108h1.27v7.847h-1.27v-3.548h-3.898v3.547h-1.349v-7.846z" fill="#A52B21"/><path d="M24.125 49.952h4.29c2.192 0 4.602.242 4.602 3.41 0 3.02-2.48 3.366-4.394 3.366h-4.498v-6.776zm-5.307 11.135h11.154c1.488 0 8.361 0 8.361-7.622 0-7.665-6.873-7.665-9.144-7.665h-5.064v-9.935h-5.307v25.222z" fill="#F60"/></symbol><symbol viewBox="0 0 16 16" id="modal-close"><path fill-rule="evenodd" clip-rule="evenodd" d="M15.211 13.446L9.908 8.143l5.303-5.304a1.25 1.25 0 0 0-1.767-1.767L8.14 6.375 2.837 1.072a1.25 1.25 0 1 0-1.768 1.767l5.304 5.304-5.304 5.303a1.25 1.25 0 1 0 1.768 1.768L8.14 9.91l5.304 5.304a1.25 1.25 0 1 0 1.767-1.768z"/></symbol><symbol viewBox="0 0 45 45" id="view"><path d="M44.61 42.705L33.674 31.77a19.107 19.107 0 0 0 4.71-12.582C38.383 8.601 29.77 0 19.192 0 8.602 0 0 8.61 0 19.187c0 10.577 8.613 19.188 19.192 19.188 4.81 0 9.211-1.776 12.584-4.71l10.939 10.936c.26.26.608.399.948.399a1.349 1.349 0 0 0 .948-2.295zM2.686 19.187c0-9.1 7.405-16.493 16.497-16.493 9.101 0 16.497 7.404 16.497 16.493 0 9.09-7.396 16.504-16.497 16.504-9.092 0-16.497-7.404-16.497-16.504z"/></symbol><symbol viewBox="0 0 32 32" id="vk"><path fill-rule="evenodd" clip-rule="evenodd" d="M16 29c7.18 0 13-5.82 13-13S23.18 3 16 3 3 8.82 3 16s5.82 13 13 13zm7.906-8.4l.004.01c.02.046.041.124.06.24a.67.67 0 0 1-.003.304c-.022.091-.097.173-.221.248a.714.714 0 0 1-.234.087 1.46 1.46 0 0 1-.288.026l-2.274.034a.97.97 0 0 1-.497-.043 2.128 2.128 0 0 1-.463-.198l-.177-.107a4.163 4.163 0 0 1-.622-.573c-.24-.257-.442-.486-.61-.693a2.924 2.924 0 0 0-.54-.52c-.193-.138-.358-.185-.5-.138l-.025.009a.367.367 0 0 0-.047.022.642.642 0 0 0-.153.129 1.27 1.27 0 0 0-.19.263 1.69 1.69 0 0 0-.152.464 2.814 2.814 0 0 0-.059.693c0 .09-.01.172-.031.247a.49.49 0 0 1-.065.166l-.034.044c-.106.113-.262.179-.47.198h-1.02A3.982 3.982 0 0 1 14 21.364a4.963 4.963 0 0 1-1.166-.473 11.146 11.146 0 0 1-.915-.592c-.273-.2-.481-.37-.624-.514l-.221-.217c-.06-.06-.143-.15-.246-.27a22.44 22.44 0 0 1-.634-.814c-.32-.423-.634-.875-.942-1.351a26.09 26.09 0 0 1-1.088-1.887A26.477 26.477 0 0 1 7.01 12.8a1.03 1.03 0 0 1-.039-.124.515.515 0 0 1-.014-.117.29.29 0 0 1 .027-.145l.035-.053c.09-.113.257-.17.507-.17l2.43-.018c.072.013.14.031.206.06.066.025.115.05.143.075l.043.028c.097.066.168.16.215.285.118.301.252.608.407.928.153.32.274.564.364.73l.143.26a9.837 9.837 0 0 0 .498.931c.079.13.153.244.224.344.073.105.143.196.208.27.124.148.249.261.367.346a.8.8 0 0 0 .173.098.35.35 0 0 0 .128.027.688.688 0 0 0 .24-.044.132.132 0 0 0 .043-.044 2.73 2.73 0 0 0 .106-.197 1.41 1.41 0 0 0 .12-.42c.026-.173.054-.414.085-.724.012-.134.02-.197.02-.261.003-.086-.004-.17-.02-.42a4.412 4.412 0 0 0-.08-.652 1.792 1.792 0 0 0-.125-.41l-.053-.107c-.15-.204-.4-.332-.755-.385-.078-.013-.063-.085.043-.217.1-.116.211-.203.336-.27.314-.156 1.02-.228 2.12-.215.486.006.883.043 1.198.116.061.016.118.035.17.057.046.02.09.04.128.065a.517.517 0 0 1 .183.216c.04.091.072.188.093.285.022.1.032.235.032.408 0 .172-.004.338-.01.492-.003.066-.005.061-.008.056-.004-.008-.008-.016-.014.135a22.41 22.41 0 0 0-.012.74c0 .066-.003.191-.01.376l-.002.096c-.002.14-.003.251 0 .334.003.103.012.222.03.363.02.138.053.254.103.348.05.094.115.166.2.22.05.009.099.021.152.034.052.013.13-.019.23-.097a2.827 2.827 0 0 0 .545-.551c.077-.1.161-.218.253-.355.184-.273.386-.593.604-.962a14.49 14.49 0 0 0 .951-2.013.587.587 0 0 1 .087-.157.375.375 0 0 1 .097-.094l.034-.028.043-.022.116-.028a.452.452 0 0 1 .143-.011.151.151 0 0 1 .034.008l2.555-.019c.23-.031.42-.022.57.022.146.044.239.094.273.147l.053.088c.137.38-.308 1.257-1.33 2.63-.144.191-.337.445-.58.762-.46.595-.727.987-.798 1.172-.1.245-.06.486.124.724.1.126.339.37.718.734h.01l.019.018.018.02c.834.78 1.4 1.441 1.694 1.977.018.03.035.064.055.104z"/><path fill-rule="evenodd" clip-rule="evenodd" d="M32 16c0 8.837-7.164 16-16 16S0 24.837 0 16 7.164 0 16 0s16 7.163 16 16zm-1 0c0 8.284-6.716 15-15 15-8.284 0-15-6.716-15-15C1 7.716 7.716 1 16 1c8.284 0 15 6.716 15 15z"/></symbol></svg>