<svg version="1" xmlns="http://www.w3.org/2000/svg" width="933.333" height="933.333" viewBox="0 0 700.000000 700.000000"><path d="M0 350v350h175.3c147.6-.1 174.7-.3 172.2-1.4-3.8-1.7-9.4-7.7-12.7-13.6-6.2-10.9-28.9-62.5-33.5-75.9-2.1-6.2-2.6-9.4-2.6-17.6 0-9.7.2-10.6 6.7-29.5 5-14.8 7.9-25.4 11.7-43.9 2.7-13.4 8.5-38.6 12.8-56 5.4-21.5 9.7-42 13.5-64.1 3.1-17.9 7.1-40.1 9-49.3l3.3-16.8-18.4-17.9c-10.2-9.9-18.9-18-19.4-18-1 0-16.6 23.2-38.9 58-27.1 42.3-73.7 117.7-86.2 139.6l-8.3 14.4h-33.7c-18.6 0-33.8-.2-33.8-.5 0-.7 25-48.7 32.5-62.5 17.3-31.8 40.7-69.3 53.5-86 5.3-6.9 12.7-17.5 16.5-23.5 3.9-6.1 11.3-16.6 16.6-23.5 12.2-16 16-21.6 26.5-39.6 6.9-11.9 8.2-15 7.2-15.9-2.8-2.6-27-21.6-40.1-31.4-7.6-5.7-28.9-20.5-47.5-33-18.5-12.5-40-27-47.7-32.3-21-14.3-35.8-22.5-43.5-24.1-8.8-1.9-12-3.7-17.5-10.2-8.1-9.5-13-11.1-25.6-8.4-6.8 1.5-11.6 0-16.9-5-3-2.9-4-4.6-4-7 0-5.2 4.4-8.3 18.4-12.9 6.6-2.3 19.5-6.7 28.6-9.9l16.5-5.8h17c20.6.1 24.9 1.3 30.2 8.5 5.5 7.5 7.3 8.8 20.1 15 14 6.8 15.1 7.5 40.2 26 10.2 7.5 29.5 21 43 30s33.9 23.1 45.5 31.3c11.5 8.2 21.4 15.1 22.1 15.4.6.2 3.3-2.6 6-6.4 19.7-27.8 33.5-44.7 65.4-80.3 28.6-31.9 34.1-37 44.4-42.1 19.8-9.7 32.4-5 39 14.7 5 14.7 7.9 28.6 7.9 37.9.1 9.9 1 6.2-29 120.5l-13.4 51.5 6.3 5.9c16.5 15.5 28.8 28 37.1 37.4 4.9 5.6 10 10.5 11.3 10.8 3.6.9 9.2-1.4 11.7-4.9 1.3-1.8 4.7-9.1 7.6-16.2 2.9-7.2 10.3-22.2 16.5-33.5 12.7-22.9 16.6-31.4 16.6-36.1 0-1.9 3.3-10.3 7.9-20.3 4.4-9.4 11.5-25.2 15.9-35.1 4.4-9.9 9.9-22.1 12.2-27 9.9-21.4 26.7-62.2 36.5-89 5.9-16 14.2-36.4 18.5-45.5 5-10.5 9.2-21.1 11.5-28.9 2-6.9 4.1-13.3 4.6-14.3C644 .1 632.6 0 322 0H0v350z"/><path d="M648.4 2.7c2.8 3 13.6 26 17.2 36.6 2.9 8.7 7.4 28.4 7.4 32.8 0 8.9-26.4 76.9-47.5 122.4-2 4.4-10.1 22.8-18 41-20.7 47.8-33.9 76.2-67.2 144.6l-13 26.5 6 6.5c48.3 52.2 66.3 78.1 76.5 109.9 5.5 16.9 6.8 27.4 5.2 41.8-3.2 29.5-8 46.9-17.6 63.3-7.4 12.6-16.4 18.9-27 18.9-5.7 0-6.2-.2-12.9-5.6-3.9-3.1-9-6.7-11.5-8.1-6.1-3.5-11-8.1-12.6-12-.8-1.8-1.4-6.6-1.4-11.1 0-10.1-1.6-15.2-7.2-23.5-3.6-5.2-4.7-7.8-5.3-12.4-1.7-13.8-7.8-34-16.1-53.1-5.2-12-7.1-15.5-14.1-27.5l-3.5-5.7-3.8 5.9c-8.2 12.6-11.7 10.2-14-9.4-2.6-22.2-4.1-25.9-8.5-21.4-1.3 1.3-9.6 15-18.5 30.4-9 15.4-20.6 35.4-26 44.5-20.8 35.2-23.3 42.6-25 75-1 20.1-2.8 27.2-8.9 36.7-6.2 9.6-6.4 10.3-7.2 19.8-.7 8.6-2.4 20-3.5 23.8-.7 2.4-4.8 4.9-9.2 5.8-2.1.3 73.4.7 167.6.8l171.2.1V0h-54.1l2.5 2.7zM369.7 223c-4.1 4.3-8.9 9.7-10.6 11.9l-3.1 3.9 5.7 3.3c3.2 1.8 8.1 5.6 10.9 8.5l5.1 5.2 2.1-10.2c4.1-19.5 3.9-30.6-.7-30.6-1.1 0-5.1 3.4-9.4 8zM397.7 421.3c-4.8 19.9-10.1 42.3-11.8 49.7-8.9 39.8-11.6 50.2-17.4 68-6.9 21.4-9.6 33.7-7.5 35 4 2.4 12.4-3.9 21.9-16.5 8.6-11.3 12.8-18.2 22.3-36.5s15.1-27.5 22.7-36.9c7.8-9.7 10.8-16 12-24.8 1.2-9.4 2.7-12.3 7.9-15.1 2.3-1.3 4.2-2.8 4.2-3.4 0-1.9-41.7-53.2-44.8-55.2-.4-.2-4.7 15.8-9.5 35.7z"/></svg>