<svg width="150" height="81" viewBox="0 0 150 81" fill="none" xmlns="http://www.w3.org/2000/svg">
<path d="M20.837 23.1934H13.4505V61.0867H6.05536V23.1934H0V17.0994H6.05536V9.59847C6.05536 3.20237 9.86605 0 17.4787 0C18.1661 0 19.2797 0.060422 20.837 0.164003V6.75864C19.6016 6.64642 18.6098 6.59463 17.8268 6.59463C16.252 6.59463 15.1384 6.99169 14.4598 7.78581C13.7899 8.59719 13.4505 9.88332 13.4505 11.6787V17.0994H20.837V23.1934Z" fill="#E31E24"/>
<path d="M117.121 51.8063C119.088 54.1282 124.264 58.7203 125.108 64.2791C125.282 65.4099 125.082 66.4889 124.96 67.447C124.891 68.0253 124.795 68.5605 124.665 69.0697C124.534 69.5531 124.421 69.9502 124.317 70.2523C124.169 70.6925 123.969 71.1068 123.777 71.4953C123.577 71.8923 123.377 72.2462 123.168 72.5224C122.864 72.9281 122.524 73.2302 122.124 73.4547C121.741 73.6704 121.306 73.7654 120.81 73.7395C120.558 73.7309 120.332 73.61 120.114 73.4029C119.897 73.2043 119.653 72.9885 119.383 72.79C119.149 72.6087 118.844 72.4361 118.522 72.2721C118.192 72.0995 117.965 71.8837 117.8 71.6247C117.591 71.2967 117.504 70.9256 117.556 70.5026C117.609 70.0796 117.556 69.6567 117.452 69.2337C117.365 68.8971 117.2 68.5518 116.878 68.1979C116.565 67.8527 116.443 67.5074 116.425 67.1794C116.338 65.548 114.955 61.5774 113.337 59.2209C110.875 63.7612 112.354 54.3613 110.622 57.391C108.9 60.4208 107.29 63.0966 106.229 64.9092C105.541 66.0832 105.115 67.0499 104.95 67.7922C104.776 68.5432 104.68 69.1819 104.663 69.7085C104.637 70.1746 104.619 70.7184 104.611 71.3312C104.602 71.9355 104.463 72.5742 104.21 73.2475C104.123 73.4719 103.967 73.7481 103.732 74.0589C103.488 74.3869 103.323 74.689 103.218 75.0084C103.131 75.2587 103.123 75.5176 103.166 75.8025C103.21 76.0701 103.184 76.3204 103.105 76.5362C103.027 76.7606 102.984 77.0196 102.957 77.3217C102.931 77.6065 102.897 77.8482 102.801 78.0036C102.644 78.228 102.401 78.3661 102.114 78.4265C101.818 78.4869 101.574 78.5128 101.357 78.5215C100.6 78.5301 99.9385 77.9431 99.3817 76.7606C98.8162 75.5694 98.3898 74.6199 98.0679 73.9121C97.4937 72.6346 97.0152 71.4953 96.6324 70.494C96.2583 69.4927 96.1452 68.5864 96.3453 67.775C96.4758 67.2484 96.7194 66.5234 97.0761 65.5825C97.4241 64.6589 97.7025 63.6059 97.9026 62.4319C98.3115 59.9892 99.0685 57.2443 99.721 54.6807C100.13 53.0924 100.617 48.9837 101.496 45.0563C100.73 44.2881 100.147 43.7011 99.7558 43.2954C99.3469 42.8897 98.7727 42.3546 98.007 41.6986C97.3023 42.7862 96.5019 44.0032 95.6232 45.3152C94.7532 46.6532 93.8396 48.0688 92.9174 49.5362C92.0648 50.9086 91.1861 52.3415 90.2464 53.8434C89.3242 55.328 88.3933 56.8127 87.4972 58.306C86.9665 59.2296 86.4183 60.1532 85.8789 61.0854H79.7018C79.841 60.8351 79.9802 60.5761 80.1107 60.3172C80.5979 59.3677 81.1112 58.3837 81.6419 57.3565C82.1726 56.3466 82.6859 55.3626 83.2167 54.4131C83.6256 53.6621 84.0867 52.8766 84.6 52.0566C85.122 51.2539 85.6092 50.4684 86.0442 49.7088C86.4792 48.9578 86.9839 48.2414 87.5581 47.5509C88.141 46.8603 88.6543 46.1439 89.0893 45.3929C89.4982 44.6592 89.9593 44.0032 90.4639 43.399C90.9686 42.7948 91.4645 42.1388 91.9256 41.4396C92.2649 40.939 92.5694 40.4124 92.8739 39.8514C93.1697 39.2903 93.4916 38.7638 93.8135 38.2545C92.3954 37.1065 91.0382 36.0448 89.7157 35.0521C88.3846 34.0767 87.01 33.1186 85.5744 32.2037C84.2172 31.3232 83.0165 30.5205 81.9638 29.7523C80.9111 28.984 79.6409 28.1899 78.1879 27.3872C77.9878 27.275 77.7268 27.1973 77.3875 27.1541C77.0569 27.1196 76.7785 27.0505 76.5784 26.9383C76.2478 26.7657 75.9868 26.5067 75.7954 26.2305C75.6214 25.937 75.3604 25.6953 75.021 25.4968C74.7165 25.3242 74.3424 25.2724 73.9335 25.376C73.5159 25.4796 73.2288 25.54 73.0896 25.5659C72.933 25.6004 72.6633 25.5141 72.2979 25.3069C71.9412 25.117 71.7063 24.8753 71.6193 24.5905C71.4366 24.0467 71.8368 23.6237 72.7851 23.3562C73.7595 23.0799 74.5425 22.8124 75.1515 22.5448C75.9085 22.2686 76.561 22.0441 77.1265 21.8888C77.7007 21.7248 78.2401 21.673 78.7447 21.7248C79.0405 21.7161 79.4582 21.7248 79.9715 21.7593C80.4848 21.8024 80.9285 21.9233 81.3113 22.1391C81.5201 22.2513 81.6854 22.4239 81.7724 22.6742C81.8594 22.9332 82.0247 23.1231 82.277 23.2957C82.451 23.4338 82.8425 23.6237 83.4429 23.8999C84.0519 24.1675 84.4521 24.3747 84.687 24.5128C85.6962 25.1947 86.6445 25.8766 87.5146 26.5585C88.3933 27.2404 89.4634 27.9828 90.7336 28.8028C91.9169 29.5624 93.0566 30.3306 94.1354 31.0988C95.2143 31.867 96.267 32.6007 97.2849 33.343C98.9467 30.9607 100.539 28.9322 102.035 27.2404C103.54 25.5313 104.95 23.9776 106.272 22.5879C106.542 22.2686 106.925 21.9664 107.438 21.6816C107.934 21.3709 108.43 21.181 108.926 21.0946C109.43 20.9997 109.9 21.0946 110.335 21.3709C110.77 21.6384 111.101 22.1563 111.344 22.9332C111.623 23.8654 111.849 24.6941 111.971 25.4019C112.11 26.101 112.11 26.7829 111.945 27.4217C111.44 29.3984 110.866 31.6167 110.231 34.094C109.587 36.5713 108.9 39.204 108.16 41.992C109.317 43.0537 110.161 43.8392 110.666 44.3312C111.17 44.8232 111.936 45.6778 112.954 46.8862C113.276 46.9812 113.554 46.9553 113.815 46.8258C114.085 46.6791 114.268 46.4805 114.381 46.2388C114.572 45.8418 114.729 45.4706 114.859 45.0822C114.999 44.711 115.155 44.3399 115.303 43.986C115.695 43.2005 116.104 42.4322 116.565 41.6554C117.008 40.8872 117.426 40.1017 117.8 39.2903C117.887 39.0745 117.913 38.9019 117.878 38.7724C117.852 38.6516 117.878 38.4789 117.965 38.2459C118.279 37.5812 118.644 36.7957 119.062 35.898C119.462 34.9831 119.81 34.1976 120.114 33.5243C120.297 33.0582 120.515 32.5835 120.741 32.126C120.976 31.6685 121.202 31.1851 121.411 30.6845C121.654 30.1062 121.933 29.476 122.228 28.7941C122.516 28.1036 122.794 27.4648 123.046 26.8779C123.42 26.0234 123.821 24.9962 124.238 23.8136C124.647 22.6311 125.03 21.5953 125.378 20.7062C125.569 20.2056 125.813 19.6963 126.074 19.1784C126.352 18.6691 126.587 18.1512 126.813 17.6506C126.979 17.2363 127.118 16.7874 127.24 16.304C127.344 15.8207 127.501 15.3632 127.649 14.9489C127.675 14.8366 127.762 14.7935 127.875 14.828C128.005 14.8712 128.119 14.9834 128.24 15.1388C128.353 15.3114 128.562 15.6998 128.841 16.3213C129.136 16.9428 129.354 17.4262 129.484 17.7455C129.693 18.2375 129.919 18.9712 130.146 19.938C130.389 20.9134 130.45 21.5176 130.337 21.8024C130.12 22.4153 129.902 23.0454 129.676 23.7014C129.441 24.3574 129.215 25.0307 128.962 25.6867C128.327 27.4648 127.596 29.1998 126.796 30.9175C125.996 32.618 125.204 34.3875 124.43 36.226C123.69 38.0042 122.898 39.7996 122.037 41.6295C121.193 43.4594 120.323 45.2548 119.453 47.0416C119.07 47.8271 118.687 48.6212 118.296 49.4239C117.904 50.2353 117.513 51.0208 117.121 51.8063ZM103.697 34.353C103.497 34.353 103.218 34.5515 102.853 34.9831C102.488 35.3974 102.035 35.9153 101.513 36.5368C101.652 36.6145 101.861 36.7267 102.114 36.8821C102.392 37.0374 102.609 37.1842 102.783 37.3568C102.94 37.4776 103.088 37.633 103.201 37.7711C103.314 37.9265 103.419 38.0387 103.488 38.125C103.793 37.0115 103.949 36.1052 103.967 35.3974C103.993 34.6982 103.897 34.3443 103.697 34.353ZM110.3 54.8878C109.674 54.0592 108.995 53.2046 108.256 52.2897C107.525 51.392 106.812 50.5633 106.133 49.8383C105.185 53.6103 104.323 57.2357 103.575 60.6883C102.827 64.1497 102.174 64.4172 101.879 67.0327C102.905 67.7146 105.237 63.9684 106.185 61.8623C106.385 61.4134 106.829 60.7142 107.073 60.2913C107.351 59.7993 107.656 59.3504 108.012 58.9447C108.378 58.5563 108.674 58.1247 108.926 57.6413C109.048 57.3997 109.126 57.0716 109.152 56.6746C109.178 56.2603 109.248 55.9409 109.352 55.6906C109.465 55.4661 109.622 55.3194 109.848 55.259C110.074 55.2158 110.222 55.0864 110.3 54.8878Z" fill="#00CCFF"/>
<path d="M43.6484 35.8652H50.365V46.0679H55.7504C56.1072 42.8397 57.3339 40.2415 59.448 38.2735C61.5709 36.3055 64.3985 35.3301 67.9395 35.3301C71.5153 35.3301 74.4472 36.4781 76.7267 38.7741C79.0061 41.0702 80.1546 44.3848 80.1546 48.7092C80.1546 51.2556 79.7283 53.474 78.8669 55.3643C78.023 57.2719 76.7093 58.7997 74.9605 59.965C73.2031 61.1389 70.9062 61.7172 68.0787 61.7172C64.0157 61.7172 60.9793 60.621 58.9869 58.4113C56.9946 56.2102 55.9158 53.8624 55.7504 51.3678H50.365V61.0871H43.6484V35.8652ZM67.8525 40.5264C65.9732 40.5264 64.616 41.1306 63.7547 42.3131C62.8933 43.5043 62.467 45.4033 62.467 48.0101C62.467 51.3505 62.9194 53.6034 63.8417 54.7687C64.7639 55.934 66.1733 56.5209 68.0526 56.5209C69.7839 56.5209 71.0802 55.8649 71.9416 54.5529C72.8116 53.2409 73.2466 51.2729 73.2466 48.6488C73.2466 45.4465 72.7768 43.2885 71.8372 42.1837C70.8975 41.0788 69.5664 40.5264 67.8525 40.5264Z" fill="#F69F08"/>
<path d="M126.875 35.8652H133.583V45.0925H143.284V35.8652H150V61.0871H143.284V50.4874H133.583V61.0871H126.875V35.8652Z" fill="#33CC33"/>
<path d="M10.553 68.0792C12.7454 68.4245 13.7721 69.9523 13.6242 72.6626C13.4762 74.4408 12.6758 75.5543 11.2229 75.9945C9.92656 76.2966 8.84773 75.9945 8.00381 75.1054V80.0687H6.65527V68.1483H8.00381V69.2617C8.75203 68.4245 9.60465 68.0274 10.553 68.0792ZM10.1006 69.115C9.40454 69.115 8.70853 69.5811 8.00381 70.522V73.9229C8.65632 74.8119 9.45675 75.1572 10.4051 74.9587C11.9015 74.8119 12.5975 73.6812 12.5018 71.5578C12.3974 70.3234 11.8754 69.5552 10.9271 69.2617L10.1006 69.115ZM20.9845 67.9238C23.4293 68.0792 24.6299 69.607 24.5777 72.5159H18.8878C18.9835 73.6035 19.5055 74.3717 20.4538 74.8119C21.202 75.1054 22.3331 74.9069 23.8295 74.225L24.2732 75.2608C23.525 75.701 22.6289 75.9945 21.5849 76.1499H20.68C18.679 75.701 17.6611 74.2681 17.6089 71.8513C17.7133 70.0731 18.5572 68.8215 20.158 68.0792L20.9845 67.9238ZM21.0541 69.1841C19.9579 69.1841 19.2358 69.8573 18.8878 71.1866V71.411H23.1509V70.9622C23.1074 70.0731 22.5332 69.5034 21.4283 69.2617L21.0541 69.1841ZM32.9125 68.0015C33.6608 68.0533 34.3568 68.2777 35.0093 68.6662L34.5569 69.6329C34.061 69.2358 33.4868 69.0632 32.8342 69.115C31.4857 69.0632 30.6157 69.8832 30.2155 71.5578C30.0676 73.1374 30.5635 74.225 31.7119 74.8119C32.7124 75.1572 33.6608 75.0105 34.5569 74.3717L35.1572 75.4075C34.2089 76.0463 33.0605 76.2707 31.7119 76.0722C30.1111 75.4766 29.2411 74.3458 29.0844 72.6626L29.0148 71.998C29.215 70.0213 30.085 68.7438 31.6336 68.1483C31.8337 68.0533 32.26 68.0015 32.9125 68.0015ZM39.3681 68.1483H46.9373V69.3394H43.7878V75.9945H42.5176V69.3394H39.3681V68.1483ZM54.1498 68.0015C55.6984 67.9497 56.8382 68.8215 57.5951 70.591C57.7952 71.2298 57.8387 71.9548 57.743 72.7403C57.4907 74.5185 56.6729 75.6061 55.2721 75.9945C54.9676 76.1499 54.4456 76.193 53.6974 76.1499C51.8442 75.9427 50.8002 74.6911 50.5479 72.3692V71.8513C50.6523 70.1767 51.3222 69.0114 52.5751 68.3727C52.9231 68.1741 53.4451 68.0533 54.1498 68.0015ZM54.0715 69.1841C52.8709 69.2358 52.1226 69.9782 51.8268 71.411C51.5745 73.0856 52.0443 74.225 53.245 74.8119C53.4973 74.9587 53.9497 75.0105 54.5935 74.9587C56.0464 74.6134 56.6903 73.4827 56.5424 71.5578C56.29 70.1767 55.594 69.3826 54.4456 69.1841H54.0715ZM65.7037 68.0792C67.8961 68.4245 68.9228 69.9523 68.7749 72.6626C68.627 74.4408 67.8265 75.5543 66.3736 75.9945C65.0773 76.2966 63.9984 75.9945 63.1545 75.1054V80.0687H61.806V68.1483H63.1545V69.2617C63.9027 68.4245 64.7554 68.0274 65.7037 68.0792ZM65.2513 69.115C64.5466 69.115 63.8505 69.5811 63.1545 70.522V73.9229C63.7983 74.8119 64.5988 75.1572 65.5471 74.9587C67.0522 74.8119 67.7482 73.6812 67.6438 71.5578C67.5481 70.3234 67.0261 69.5552 66.0778 69.2617L65.2513 69.115ZM76.3528 68.0015C77.4055 67.9497 78.1537 68.2777 78.6061 68.9596C78.9019 69.0632 79.0063 70.7896 78.9019 74.1473V74.5875C78.8062 74.8378 79.0759 74.9069 79.7285 74.8119H79.8764V75.9945H78.0058C77.6578 75.8477 77.4751 75.6061 77.4751 75.2608C76.579 75.8477 75.5523 76.1499 74.4039 76.1499H74.1864C73.1337 76.0463 72.6117 75.3039 72.6117 73.9229C72.6117 72.2915 74.2299 71.3334 77.4751 71.0399C77.5273 70.591 77.4751 70.099 77.3272 69.5552C76.927 68.8647 75.7002 68.9855 73.6557 69.9264L73.1337 68.9596C74.082 68.4245 75.1521 68.1051 76.3528 68.0015ZM77.2576 72.2915L75.1521 72.6626C74.4561 72.8612 73.9776 73.2582 73.734 73.8452V74.0006C73.6818 74.4408 73.9776 74.786 74.6301 75.0364C75.5784 75.0882 76.5268 74.7601 77.4751 74.0696V72.2915H77.2576ZM83.9394 68.1483H85.2879V71.2557H89.1856V68.1483H90.4558V75.9945H89.1856V72.4468H85.2879V75.9945H83.9394V68.1483Z" fill="#A52B21"/>
<path d="M24.1255 49.9522H28.4147C30.6072 49.9522 33.0171 50.1939 33.0171 53.3617C33.0171 56.3828 30.5376 56.7281 28.6235 56.7281H24.1255V49.9522ZM18.8184 61.0871H29.972C31.4598 61.0871 38.333 61.0871 38.333 53.4653C38.333 45.8003 31.4598 45.8003 29.189 45.8003H24.1255V35.8652H18.8184V61.0871Z" fill="#FF6600"/>
</svg>
